<svg class="svg-icon" style="width: 1em; height: 1em;vertical-align: middle;fill: currentColor;overflow: hidden;" viewBox="0 0 1024 1024" version="1.1" xmlns="http://www.w3.org/2000/svg"><path d="M928 640V320a96 96 0 0 0-96-96h-192V128H128v96h160a96 96 0 0 0-96 96v8.32a311.68 311.68 0 0 0-26.56 23.68H64v96h32c-4.8 10.56-9.92 21.12-13.76 32H64v112A333.12 333.12 0 0 0 165.76 832H160v96h640v-96h128v-96h-96a96 96 0 0 0 96-96z" fill="#FFFFFF" /><path d="M400 592m-304 0a304 304 0 1 0 608 0 304 304 0 1 0-608 0Z" fill="#E9EAEB" /><path d="M224 256m64 0l544 0q64 0 64 64l0 320q0 64-64 64l-544 0q-64 0-64-64l0-320q0-64 64-64Z" fill="#A3D4FF" /><path d="M832 256H288a64 64 0 0 0-64 64v128h32v-128a32 32 0 0 1 32-32h544a32 32 0 0 1 32 32v320a32 32 0 0 1-32 32H288a32 32 0 0 1-32-32v-64H224v64a64 64 0 0 0 64 64h544a64 64 0 0 0 64-64V320a64 64 0 0 0-64-64z" fill="#2A5082" /><path d="M820.8 308.8L616.64 512a80.64 80.64 0 0 1-113.28 0L299.2 308.8l-22.4 22.4L480 535.36a111.36 111.36 0 0 0 158.08 0l204.16-204.16zM286.08 619.52l118.784-118.752 22.624 22.624-118.784 118.784zM692.704 523.232l22.624-22.624 118.816 118.784-22.624 22.656zM96 512h32v32H96zM160 512h96v32H160zM672 768h32v32h-32zM608 768h32v32h-32zM736 768h160v32h-160zM256 864h32v32H256zM192 864h32v32H192zM320 864h448v32H320zM224 160h32v32H224zM160 160h32v32H160zM160 384h32v32H160zM96 384h32v32H96zM288 160h320v32H288z" fill="#2A5082" /></svg>